<?xml version="1.0" encoding="iso-8859-1"?>
<!-- Generator: Adobe Illustrator 19.0.0, SVG Export Plug-In . SVG Version: 6.00 Build 0)  -->
<svg version="1.1" id="Capa_1" xmlns="http://www.w3.org/2000/svg" xmlns:xlink="http://www.w3.org/1999/xlink" x="0px" y="0px"
	 viewBox="0 0 490 490" style="enable-background:new 0 0 490 490;" xml:space="preserve">
<path d="M490,85.776C490,30.065,363.774,0,245,0C126.227,0,0,30.065,0,85.776v318.447C0,459.935,126.227,490,245,490
	c118.774,0,245-30.065,245-85.777V85.776z M20.851,220.756C61.53,253.097,155.38,270.218,245,270.218
	c89.621,0,183.471-17.122,224.149-49.462v73.572c0,30.646-95.855,64.926-224.149,64.926c-128.292,0-224.149-34.28-224.149-64.926
	V220.756z M245,249.367c-128.292,0-224.149-34.28-224.149-64.935V122.1C61.53,154.442,155.38,171.563,245,171.563
	c89.621,0,183.471-17.121,224.149-49.462v62.331C469.149,215.087,373.294,249.367,245,249.367z M245,20.851
	c128.294,0,224.149,34.28,224.149,64.925c0,30.656-95.855,64.935-224.149,64.935c-128.292,0-224.149-34.279-224.149-64.935
	C20.851,55.131,116.708,20.851,245,20.851z M245,469.149c-128.292,0-224.149-34.28-224.149-64.926v-73.577
	C61.53,362.983,155.38,380.104,245,380.104c89.621,0,183.471-17.122,224.149-49.458v73.577
	C469.149,434.869,373.294,469.149,245,469.149z"/>
<g>
</g>
<g>
</g>
<g>
</g>
<g>
</g>
<g>
</g>
<g>
</g>
<g>
</g>
<g>
</g>
<g>
</g>
<g>
</g>
<g>
</g>
<g>
</g>
<g>
</g>
<g>
</g>
<g>
</g>
</svg>
